<?xml version="1.0"?><svg width="612.164" height="613.171" xmlns="http://www.w3.org/2000/svg">
 <title>blue person symbol</title>

 <g>
  <title>Layer 1</title>
  <path stroke="#ffffff" fill="#56aaff" id="path2457" d="m302.803009,90.423897"/>
  <g id="svg_1">
   <path fill="#007fff" id="path2455" d="m302.803009,131.259995c22.550995,0 40.834991,-18.283997 40.834991,-40.836098c0,-22.550995 -18.283997,-40.833996 -40.834991,-40.833996c-22.552002,0 -40.834015,18.283001 -40.834015,40.833996c0,22.552101 18.282013,40.836098 40.834015,40.836098z"/>
   <path fill="#007fff" id="path2459" d="m261.105011,140.272995c-28.918015,0 -52.173004,23.584 -52.173004,53l0,125.375015c0,24.375 35.672974,24.375 35.672974,0l0,-114.642014l8.444031,0l0,313.907028c0,32.588989 47.502991,31.630005 47.502991,0l0,-182.220032l8.182007,0l0,182.220032c0,31.630005 47.764984,32.588989 47.764984,0l0,-313.907028l8.247009,0l0,114.642014c0,24.561981 35.487,24.561981 35.421997,0l0,-124.625015c0,-27.125 -21.063995,-53.694 -52.813995,-53.694l-86.248993,-0.056z"/>
  </g>
 </g>
</svg>